<?xml version="1.0" encoding="utf-8"?>
<!-- Generator: Adobe Illustrator 16.0.0, SVG Export Plug-In . SVG Version: 6.00 Build 0)  -->
<!DOCTYPE svg PUBLIC "-//W3C//DTD SVG 1.0//EN" "http://www.w3.org/TR/2001/REC-SVG-20010904/DTD/svg10.dtd" [
	<!ENTITY ns_extend "http://ns.adobe.com/Extensibility/1.0/">
	<!ENTITY ns_ai "http://ns.adobe.com/AdobeIllustrator/10.0/">
	<!ENTITY ns_graphs "http://ns.adobe.com/Graphs/1.0/">
	<!ENTITY ns_vars "http://ns.adobe.com/Variables/1.0/">
	<!ENTITY ns_imrep "http://ns.adobe.com/ImageReplacement/1.0/">
	<!ENTITY ns_sfw "http://ns.adobe.com/SaveForWeb/1.0/">
	<!ENTITY ns_custom "http://ns.adobe.com/GenericCustomNamespace/1.0/">
	<!ENTITY ns_adobe_xpath "http://ns.adobe.com/XPath/1.0/">
]>
<svg version="1.0" xmlns:x="&ns_extend;" xmlns:i="&ns_ai;" xmlns:graph="&ns_graphs;"
	 xmlns="http://www.w3.org/2000/svg" xmlns:xlink="http://www.w3.org/1999/xlink" x="0px" y="0px" width="19px" height="19px"
	 viewBox="0 0 19 19" enable-background="new 0 0 19 19" xml:space="preserve">
<metadata>
	<sfw  xmlns="&ns_sfw;">
		<slices></slices>
		<sliceSourceBounds  height="18.865" width="61.212" y="-276.174" x="255.375" bottomLeftOrigin="true"></sliceSourceBounds>
		<optimizationSettings>
			<targetSettings  fileFormat="PNG24Format" targetSettingsID="0">
				<PNG24Format  transparency="true" filtered="false" matteColor="#FFFFFF" noMatteColor="false" interlaced="false">
					</PNG24Format>
			</targetSettings>
		</optimizationSettings>
	</sfw>
</metadata>
<g id="credit">
	<g>
		<g>
			<path d="M36.811,3.846V0.417h1.439h0.131c0.387,0,0.65,0.075,0.791,0.224s0.211,0.428,0.211,0.836
				c0,0.392-0.074,0.659-0.22,0.801c-0.146,0.142-0.422,0.213-0.825,0.213l-0.15,0.002h-0.99v1.351H36.811z M37.197,2.168h0.917
				c0.384,0,0.63-0.039,0.737-0.118c0.108-0.078,0.162-0.259,0.162-0.542c0-0.331-0.036-0.541-0.109-0.629s-0.246-0.132-0.519-0.132
				l-0.148-0.002h-1.04V2.168z"/>
			<path d="M40.231,0.417v3.428h-0.387V0.417H40.231z"/>
			<path d="M43.496,0.417l-1.094,1.655l1.178,1.773h-0.457l-0.794-1.2l-0.126-0.188c-0.007-0.01-0.026-0.041-0.058-0.093
				l-0.061-0.096h-0.01l-0.061,0.098c-0.033,0.048-0.055,0.081-0.063,0.095l-0.131,0.191l-0.807,1.193H40.54l1.226-1.773
				l-1.127-1.655h0.467l0.762,1.143l0.105,0.161c0.013,0.02,0.03,0.047,0.053,0.08l0.05,0.081h0.01l0.051-0.078
				c0.026-0.045,0.043-0.072,0.05-0.08l0.104-0.158l0.751-1.148H43.496z"/>
			<g>
				<path d="M47.422,2.046C47.26,1.92,46.908,1.847,46.35,1.823c-0.593-0.028-0.738-0.084-0.773-0.107
					c-0.021-0.015-0.094-0.088-0.094-0.424c0-0.144,0.022-0.328,0.129-0.393c0.07-0.042,0.254-0.093,0.733-0.093
					c0.415,0,0.548,0.057,0.589,0.09c0.039,0.031,0.103,0.131,0.103,0.451v0.097h0.579V1.347c0-0.436-0.09-0.716-0.271-0.859
					c-0.175-0.136-0.522-0.203-1.063-0.203c-0.531,0-0.883,0.071-1.07,0.216c-0.196,0.151-0.292,0.432-0.292,0.858
					c0,0.611,0.333,0.958,0.964,1.001l0.783,0.041c0.256,0.015,0.344,0.067,0.373,0.096c0.027,0.028,0.075,0.111,0.075,0.349
					c0,0.393-0.079,0.493-0.113,0.518c-0.048,0.035-0.21,0.093-0.762,0.093c-0.493,0-0.626-0.063-0.66-0.091
					c-0.031-0.024-0.104-0.123-0.104-0.496V2.689h-0.58l0.004,0.25c0,0.414,0.094,0.686,0.283,0.832
					c0.183,0.139,0.524,0.207,1.045,0.207c0.597,0,0.977-0.067,1.162-0.205c0.194-0.145,0.289-0.438,0.289-0.896
					C47.678,2.451,47.594,2.179,47.422,2.046z"/>
				<polygon points="47.811,3.943 50.207,3.943 50.207,3.422 48.391,3.422 48.391,2.335 50.131,2.335 50.131,1.815 48.391,1.815 
					48.391,0.841 50.207,0.841 50.207,0.321 47.811,0.321 				"/>
				<path d="M52.763,2.904c0,0.246-0.044,0.409-0.124,0.46c-0.055,0.035-0.23,0.093-0.801,0.093c-0.572,0-0.719-0.122-0.755-0.195
					c-0.052-0.104-0.112-0.475-0.112-1.649c0-0.504,0.09-0.648,0.145-0.689c0.059-0.044,0.261-0.119,0.953-0.119
					c0.379,0,0.503,0.059,0.543,0.094c0.037,0.033,0.102,0.137,0.102,0.462l0.004,0.2h0.579l-0.005-0.19
					c0-0.421-0.085-0.702-0.26-0.858c-0.172-0.154-0.481-0.229-0.947-0.229c-0.672,0-1.102,0.075-1.316,0.229
					c-0.184,0.134-0.298,0.292-0.338,0.468c-0.037,0.162-0.056,0.536-0.056,1.143c0,0.789,0.083,1.282,0.253,1.507
					c0.178,0.232,0.561,0.346,1.173,0.346c0.679,0,1.077-0.062,1.258-0.193c0.188-0.137,0.278-0.449,0.278-0.953V2.604h-0.58
					L52.763,2.904z"/>
				<polygon points="56.076,0.321 53.27,0.321 53.27,0.874 54.388,0.874 54.388,3.943 54.969,3.943 54.969,0.874 56.076,0.874 				
					"/>
				<path d="M57.576,0.285c-0.589,0-0.984,0.089-1.21,0.272c-0.228,0.185-0.343,0.524-0.343,1.007L56.018,2.13
					c0,0.82,0.086,1.32,0.26,1.529c0.18,0.215,0.604,0.319,1.299,0.319c0.699,0,1.124-0.105,1.301-0.322
					c0.172-0.211,0.256-0.725,0.256-1.571c0-0.788-0.088-1.272-0.268-1.482C58.682,0.389,58.261,0.285,57.576,0.285z M57.574,0.806
					c0.557,0,0.764,0.072,0.838,0.132c0.07,0.057,0.154,0.214,0.154,0.646l0.003,0.547c0,0.929-0.083,1.138-0.118,1.185
					c-0.033,0.043-0.184,0.143-0.877,0.143c-0.691,0-0.842-0.1-0.875-0.143c-0.035-0.046-0.118-0.255-0.118-1.185
					c0-0.927,0.083-1.135,0.118-1.182C56.732,0.906,56.883,0.806,57.574,0.806z"/>
				<path d="M61.851,2.3c0.097-0.048,0.171-0.112,0.222-0.19c0.094-0.142,0.14-0.376,0.14-0.715c0-0.386-0.086-0.664-0.256-0.828
					c-0.171-0.166-0.447-0.246-0.846-0.246h-1.729v3.622h0.58V2.554h1.199c0.197,0,0.424,0.057,0.424,0.503v0.885h0.58V2.97
					C62.164,2.596,62.025,2.399,61.851,2.3z M61.648,1.49c0,0.217-0.042,0.362-0.126,0.432c-0.061,0.051-0.204,0.111-0.54,0.111
					h-1.021V0.841h1.154c0.302,0,0.403,0.066,0.438,0.106C61.588,0.99,61.648,1.117,61.648,1.49z"/>
			</g>
		</g>
		<g>
			<polygon fill="#FFFFFF" points="32.768,2.89 30.595,5.062 29.131,3.596 28.668,4.064 30.595,5.992 33.594,2.993 33.126,2.524 			
				"/>
			<polygon fill="#FFFFFF" points="28.167,3.356 28.271,3.253 28.322,3.202 28.426,3.098 28.529,2.995 28.527,2.993 30.595,0.925 
				31.574,1.904 30.789,2.696 30.043,1.95 29.577,2.416 29.604,2.423 29.625,2.421 29.625,2.423 30.811,3.628 32.179,2.239 
				32.512,1.903 30.586,-0.016 27.598,2.993 28.064,3.46 			"/>
			<path fill="#4EAADF" d="M34.89,1.414c-0.813-2.213-3.305-3.335-5.569-2.505c-2.264,0.83-3.44,3.297-2.629,5.51
				c0.812,2.214,3.305,3.334,5.568,2.505C34.523,6.094,35.701,3.627,34.89,1.414z M27.597,2.993l2.987-3.008l1.923,1.919
				l-0.338,0.336l-1.358,1.389l-1.186-1.205V2.421l-0.021,0.002l-0.018-0.008l0.461-0.466l0.743,0.746l0.785-0.792l-0.98-0.979
				l-2.068,2.068l0.002,0.002l-0.104,0.104l-0.104,0.104l-0.052,0.052l-0.104,0.103L28.063,3.46L27.597,2.993z M30.595,5.992
				l-1.927-1.928l0.463-0.468l1.464,1.465l2.173-2.172l0.358-0.365l0.468,0.468L30.595,5.992z"/>
		</g>
		<g>
			<path d="M54.559,6.257v0.379H54.24V6.257H54.559z"/>
			<path d="M56.42,5.925h0.289l0.002,0.107c0,0.422-0.276,0.633-0.828,0.633c-0.355,0-0.59-0.067-0.703-0.2
				c-0.115-0.133-0.172-0.408-0.172-0.825c0-0.39,0.059-0.655,0.174-0.795c0.117-0.14,0.338-0.209,0.663-0.209
				c0.321,0,0.539,0.047,0.655,0.142c0.117,0.094,0.176,0.271,0.176,0.531h-0.289V5.257c0-0.153-0.037-0.254-0.113-0.305
				c-0.075-0.051-0.226-0.077-0.451-0.077c-0.217,0-0.356,0.048-0.418,0.145c-0.063,0.096-0.094,0.312-0.094,0.647
				c0,0.327,0.035,0.535,0.106,0.625c0.071,0.089,0.236,0.134,0.496,0.134c0.22,0,0.359-0.029,0.419-0.088
				C56.391,6.28,56.42,6.142,56.42,5.925z"/>
			<path d="M57.928,4.636c0.364,0,0.601,0.063,0.709,0.19C58.746,4.952,58.8,5.227,58.8,5.65s-0.054,0.698-0.163,0.825
				c-0.108,0.126-0.345,0.189-0.709,0.189c-0.363,0-0.599-0.063-0.707-0.189c-0.109-0.127-0.163-0.402-0.163-0.825
				s0.054-0.698,0.163-0.825C57.329,4.699,57.564,4.636,57.928,4.636z M57.928,4.875c-0.256,0-0.414,0.042-0.475,0.125
				c-0.063,0.083-0.092,0.3-0.092,0.65s0.029,0.567,0.092,0.651c0.061,0.083,0.219,0.125,0.475,0.125
				c0.257,0,0.416-0.042,0.478-0.125c0.061-0.083,0.092-0.3,0.092-0.651S58.466,5.083,58.405,5
				C58.344,4.917,58.185,4.875,57.928,4.875z"/>
			<path d="M59.25,4.665h0.288l-0.006,0.297l0.006,0.006c0.111-0.221,0.325-0.332,0.644-0.332c0.334,0,0.537,0.111,0.608,0.332
				h0.008c0.124-0.221,0.351-0.332,0.679-0.332c0.465,0,0.697,0.237,0.697,0.712v1.289h-0.289V5.321
				c0-0.173-0.031-0.291-0.093-0.353c-0.062-0.062-0.179-0.093-0.351-0.093c-0.229,0-0.383,0.043-0.464,0.129
				s-0.122,0.25-0.122,0.492v1.14h-0.288V5.348l-0.005-0.091c0-0.254-0.145-0.382-0.435-0.382c-0.394,0-0.59,0.214-0.59,0.642v1.12
				H59.25V4.665z"/>
		</g>
	</g>
</g>
<g id="search">
	<path d="M16.512,14.646l0.003-0.003l-3.438-3.446c1.798-2.432,1.783-5.874-0.243-8.296C10.464,0.063,6.23-0.313,3.397,2.062
		c-2.833,2.375-3.209,6.615-0.838,9.452c1.97,2.356,5.224,3.011,7.895,1.804l3.691,3.697l0.005-0.003
		c0.301,0.302,0.72,0.488,1.18,0.488c0.922,0,1.67-0.748,1.67-1.673C17,15.367,16.813,14.947,16.512,14.646z M4.271,10.077
		C2.691,8.187,2.942,5.36,4.83,3.778c1.888-1.583,4.71-1.333,6.292,0.558c1.58,1.892,1.329,4.72-0.559,6.303
		C8.675,12.221,5.852,11.97,4.271,10.077z"/>
</g>
</svg>
